# xmcd CD database file
#
# Track frame offsets:
#	150
#	21402
#	43946
#	61490
#	90236
#	115695
#	138351
#	162492
#	181164
#	202438
#	227853
#	253251
#	275689
#	306798
#
# Disc length: 4363 seconds
#
# Revision: 0
# Processed by: cddbd v1.5.2PL0 Copyright (c) Steve Scherf et al.
# Submitted via: CDex 1.97
#
DISCID=d011090e
DTITLE=Various Artist - Belgian New Beat [CD3)
DYEAR=2018
DGENRE=New Beat
TTITLE0=Logic System - Unit
TTITLE1=Twice Of Love - The Birth
TTITLE2=Nitzer Ebb - Let Your Body Learn (Instrumental)
TTITLE3=La Rolls - Fool Moon Roolz (Dub Yours)
TTITLE4=Space Opera - Mandate My Ass (New Beat Mix)
TTITLE5=Hypnosys - Time To The Beat
TTITLE6=No Excuse - X-Sample (Beat Conduct)
TTITLE7=Reese and Santonio - Rock To The Beat
TTITLE8=Eleanor Academia - Adventure (Bonus Beats)
TTITLE9=Actual Guy - Acid Emotion (European Acid Mix)
TTITLE10=Channel 5 - This Is A Test
TTITLE11=Neon - No Limit (Relax Your Body Accapella Perc. Mix)
TTITLE12=PN'P ft. Janet Weis - Poison
TTITLE13=Jarvic 7 - The Firebrigade
EXTD=YEAR: 2018
EXTT0=
EXTT1=
EXTT2=
EXTT3=
EXTT4=
EXTT5=
EXTT6=
EXTT7=
EXTT8=
EXTT9=
EXTT10=
EXTT11=
EXTT12=
EXTT13=
PLAYORDER=
